<svg id="Layer_1" data-name="Layer 1" xmlns="http://www.w3.org/2000/svg" viewBox="0 0 512 372.37"><defs><style>.cls-1,.cls-3{fill:#ed563b;}.cls-1,.cls-2{fill-rule:evenodd;}.cls-2{fill:#fff;}</style></defs><title>Person-add-05</title><path class="cls-1" d="M325.82,349.1c62.84,0,135,30,139.64,46.54H186.18C191.52,378.9,263.2,349.1,325.82,349.1Zm0-139.64a46.55,46.55,0,1,1,46.55-46.55A46.55,46.55,0,0,1,325.82,209.46Z" transform="translate(0 -69.82)"/><path class="cls-2" d="M325.82,256a93.09,93.09,0,1,0-93.09-93.09A93.07,93.07,0,0,0,325.82,256Zm0-139.64a46.55,46.55,0,1,1-46.55,46.55,46.7,46.7,0,0,1,46.55-46.55m0,186.19c-62.14,0-186.18,31.18-186.18,93.09v46.55H512V395.64C512,333.73,388,302.55,325.82,302.55ZM186.18,395.64c5.11-16.75,77-46.55,139.64-46.55,62.84,0,135,30,139.64,46.55Zm-69.82-69.82V256h69.82V209.45H116.36V139.63H69.82v69.82H0V256H69.82v69.82Z" transform="translate(0 -69.82)"/><circle class="cls-3" cx="325.86" cy="92.96" r="46.43"/></svg>